#!OML:ASF H:\Terrain\Walking\May29\JustinRory\Justin.ASF
:FULLY-SPECIFIED
:DEGREES
1153
root 8.49863 13.8772 -17.2083 7.42837 -18.8581 9.06059
lowerback 27.5859 3.9962 2.8791
upperback 3.2852 5.51794 -3.53946
thorax -10.92 2.32795 -7.66814
lowerneck -19.9165 -1.1529 -9.10185
upperneck 9.05294 0.678976 1.27128
head 5.92896 0.0989077 1.92957
rclavicle 8.5875e-014 -5.64548e-014
rhumerus 8.41729 -15.2336 -36.4703
rradius 80.0707
rwrist -26.5579
rhand -19.7332 38.5096
rfingers 7.12502
rthumb 6.59739 8.63236
lclavicle 8.5875e-014 -5.64548e-014
lhumerus -31.4882 9.73225 74.6478
lradius 112.495
lwrist 11.2259
lhand -12.236 26.0653
lfingers 7.12502
lthumb 13.8295 55.5855
rfemur -62.2014 -6.95132 8.44606
rtibia 88.8895
rfoot -33.2207 -0.756318
rtoes -8.78614
lfemur -54.303 20.7045 -32.3976
ltibia 86.7707
lfoot -38.0264 2.9764
ltoes -16.7773
1154
root 8.44526 13.8081 -17.238 7.79252 -17.8227 8.36365
lowerback 27.4376 3.6771 2.99421
upperback 3.37211 5.20051 -3.03927
thorax -10.8291 2.19365 -7.02921
lowerneck -20.0121 -1.12443 -9.44357
upperneck 9.23152 0.778424 1.57459
head 5.99378 0.154925 2.09391
rclavicle -5.48646e-014 5.56597e-015
rhumerus 8.82505 -15.5683 -36.7154
rradius 80.1338
rwrist -27.0098
rhand -19.8622 38.6603
rfingers 7.12502
rthumb 6.47285 8.77921
lclavicle -5.48646e-014 5.56597e-015
lhumerus -30.5177 9.12989 74.0894
lradius 112.186
lwrist 11.151
lhand -12.2775 26.3524
lfingers 7.12502
lthumb 13.7896 55.8753
rfemur -62.5422 -7.29594 9.43088
rtibia 89.6531
rfoot -33.5443 -1.5115
rtoes -9.78685
lfemur -55.1059 20.9746 -31.79
ltibia 87.664
lfoot -38.2037 2.93705
ltoes -17.9918
1155
root 8.38778 13.7271 -17.2731 8.22777 -16.6493 7.22885
lowerback 27.447 3.2561 3.48231
upperback 3.33746 4.87769 -2.43658
thorax -10.9327 2.0307 -6.51354
lowerneck -19.5254 -1.04199 -9.04382
upperneck 9.01543 0.762041 1.32852
head 5.85031 0.147102 1.94647
rclavicle 4.05521e-014 7.15625e-015
rhumerus 8.77993 -15.698 -37.1031
rradius 80.604
rwrist -27.4088
rhand -20.3211 38.1597
rfingers 7.12502
rthumb 6.02979 8.26548
lclavicle 4.05521e-014 7.15625e-015
lhumerus -29.5388 8.58833 73.3436
lradius 111.786
lwrist 11.0244
lhand -12.1759 26.0479
lfingers 7.12502
lthumb 13.8875 55.5642
rfemur -62.8424 -7.6101 10.9374
rtibia 90.4383
rfoot -33.8457 -2.44905
rtoes -10.6137
lfemur -56.0311 21.2944 -30.6893
ltibia 88.6468
lfoot -38.3176 2.7836
ltoes -18.8359
1156
root 8.32426 13.6536 -17.309 8.49336 -15.4706 6.462
lowerback 27.6081 2.93085 3.42987
upperback 3.26554 4.52268 -1.8454
thorax -11.2024 1.86771 -5.7044
lowerneck -19.4733 -0.979212 -8.74282
upperneck 9.23148 0.761475 1.36272
head 5.91199 0.154456 1.91154
rclavicle 6.04305e-014 1.66979e-014
rhumerus 8.39767 -15.7262 -37.5514
rradius 81.4871
rwrist -27.4844
rhand -20.8078 37.7713
rfingers 7.12502
rthumb 5.55993 7.86419
lclavicle 6.04305e-014 1.66979e-014
lhumerus -28.2651 8.13844 72.7298
lradius 111.21
lwrist 10.7666
lhand -12.2022 25.9142
lfingers 7.12502
lthumb 13.8621 55.4322
rfemur -63.0558 -8.05021 12.1112
rtibia 91.2105
rfoot -34.2769 -3.24404
rtoes -10.6923
lfemur -56.8443 21.5151 -29.8791
ltibia 89.5593
lfoot -38.2681 2.37744
ltoes -18.7963
1157
root 8.25463 13.5873 -17.3407 8.71775 -14.2548 6.22065
lowerback 27.6367 2.72212 2.8723
upperback 3.24872 4.14903 -1.38578
thorax -11.3587 1.7253 -4.7328
lowerneck -19.3725 -0.868609 -8.01119
upperneck 9.2593 0.756738 1.03514
head 5.90874 0.151254 1.68955
rclavicle 2.3059e-014 1.90833e-014
rhumerus 7.91425 -15.9064 -37.9391
rradius 82.4051
rwrist -27.5155
rhand -20.4598 38.1551
rfingers 7.12502
rthumb 5.8959 8.25716
lclavicle 2.3059e-014 1.90833e-014
lhumerus -26.4906 7.51978 72.1135
lradius 110.578
lwrist 10.6435
lhand -12.426 26.1834
lfingers 7.12502
lthumb 13.6465 55.7161
rfemur -63.416 -8.66337 12.7386
rtibia 91.9461
rfoot -34.653 -3.82998
rtoes -10.3865
lfemur -57.64 21.591 -29.6693
ltibia 90.3366
lfoot -38.2906 2.1233
ltoes -19.2214
1158
root 8.18442 13.5248 -17.3718 8.99284 -13.0167 5.71208
lowerback 27.6915 2.48499 2.58228
upperback 3.20107 3.82491 -0.889366
thorax -11.5306 1.59591 -3.89286
lowerneck -18.4597 -0.684897 -6.74649
upperneck 8.5204 0.695181 0.271433
head 5.53643 0.124485 1.23218
rclavicle -2.22639e-014 -6.36111e-015
rhumerus 7.19494 -16.0894 -38.3127
rradius 83.3874
rwrist -27.369
rhand -19.9762 38.3854
rfingers 7.12502
rthumb 6.36282 8.50092
lclavicle -2.22639e-014 -6.36111e-015
lhumerus -24.5286 6.97893 71.5366
lradius 109.759
lwrist 10.513
lhand -12.4252 25.9544
lfingers 7.12502
lthumb 13.6472 55.487
rfemur -63.7228 -9.13987 13.6514
rtibia 92.5852
rfoot -34.9066 -4.60018
rtoes -10.839
lfemur -58.4553 21.6513 -29.1424
ltibia 91.0655
lfoot -38.3529 1.67278
ltoes -19.3871
